<?xml version="1.0" encoding="utf-8"?><!--Generator: Adobe Illustrator 21.0.0, SVG Export Plug-In . SVG Version: 6.00 Build 0)--><svg version="1.1" id="Layer_1" xmlns="http://www.w3.org/2000/svg" xmlns:xlink="http://www.w3.org/1999/xlink" x="0px" y="0px" viewBox="0 0 100 100" style="enable-background:new 0 0 100 100;" xml:space="preserve"><style type="text/css">.st0{fill:url(#SVGID_1_);} .st1{fill:#4C96D1;} .st2{fill:#E8D556;} .st3{fill:#CF375B;} .st4{fill:#3B82C4;} .st5{fill:#236CB5;} .st6{fill:#D8B234;} .st7{fill:#1987C9;} .st8{fill:#2C98D4;} .st9{fill:#459FD1;} .st10{fill:#42B262;} .st11{fill:#000101;} .st12{fill:#653512;} .st13{fill:#15A260;} .st14{fill:#E42C91;} .st15{fill:#4873B8;} .st16{fill:#04A860;} .st17{fill:#FFCF65;} .st18{fill:#F3B41A;} .st19{fill:#DC4E40;} .st20{fill:#3E3E3E;} .st21{fill:#1CB360;} .st22{fill:#4E84C4;} .st23{fill:#87C540;} .st24{fill:#FFFFFF;} .st25{fill:#1E5281;} .st26{fill:#9FC93B;} .st27{fill:#F4811F;} .st28{fill:#4AA847;} .st29{fill:#176CB6;} .st30{fill:#FEFFFF;} .st31{fill:#323232;} .st32{fill:#BA1F24;} .st33{fill:#1B3461;} .st34{fill:#508BC1;} .st35{fill:#E64626;} .st36{fill:#F0A146;} .st37{fill:#79B947;} .st38{fill:#973D97;} .st39{fill:#3CB0E5;} .st40{fill:#F36E29;} .st41{fill:#37926B;} .st42{fill:#99B03F;} .st43{fill:#44B763;} .st44{fill:#65BC45;} .st45{fill:#ED523F;} .st46{fill:#B01E23;} .st47{fill:#9A2C34;} .st48{fill:#B03B7D;} .st49{fill:#EEBE1F;} .st50{fill:#3E489E;} .st51{fill:#CB8A3E;} .st52{fill:#3B8FB4;} .st53{fill:#8CB03E;} .st54{fill:#1D93CF;} .st55{fill:#163760;} .st56{fill:#C42530;} .st57{fill:#D4252D;} .st58{fill:#E76229;} .st59{fill:#D24F4E;} .st60{fill:#ED2123;} .st61{fill:#2C9AD6;} .st62{fill:#F5B51C;} .st63{fill:#E55227;} .st64{fill:#7CB341;} .st65{fill:#9D3538;} .st66{fill:#236F44;} .st67{fill:#672C91;} .st68{fill:#2971B9;} .st69{fill:#C84728;} .st70{fill:#2A5391;} .st71{fill:#5ABA48;} .st72{fill:#42B6DA;} .st73{fill:#F26721;} .st74{fill:#4C4C4C;} .st75{fill:#02603D;} .st76{fill:#D72026;} .st77{fill:#D81F26;} .st78{fill:#F7BB16;} .st79{fill:#EA4434;} .st80{fill:#34A850;} .st81{fill:#547EC0;} .st82{fill:#FFC820;} .st83{fill:#F47C1F;} .st84{fill:url(#SVGID_2_);} .st85{fill:url(#SVGID_3_);} .st86{fill:url(#SVGID_4_);} .st87{fill:url(#SVGID_5_);} .st88{opacity:0.2;fill:#000101;enable-background:new ;} .st89{opacity:0.12;fill:#000101;enable-background:new ;} .st90{opacity:0.25;fill:#FFFFFF;enable-background:new ;} .st91{fill:none;stroke:#E42C91;stroke-width:4;stroke-miterlimit:10;} .st92{fill:none;stroke:#E42C91;stroke-width:4;stroke-linecap:round;stroke-miterlimit:10;} .st93{fill:#F04B4C;} .st94{fill:#472D8B;} .st95{fill:#E4F2FC;} .st96{fill:#7AC144;} .st97{fill:#E44E25;} .st98{fill:#F16729;} .st99{fill:#EBEBEB;} .st100{fill:#31322F;} .st101{fill:#E7EAE8;} .st102{fill:#EDD3B6;} .st103{fill:#CA3B34;} .st104{fill:#324F5E;} .st105{fill:#29221E;} .st106{fill:#7FABBE;} .st107{fill:none;} .st108{fill:#378D69;} .st109{fill:#ED2223;} .st110{fill:#E35F2F;} .st111{fill:#E79979;} .st112{fill:#3786A8;} .st113{fill:#6CBE44;} .st114{fill:#28B04A;} .st115{fill:#1072AB;} .st116{fill:#E7BD38;} .st117{fill:#170908;} .st118{fill:#28A7DA;} .st119{fill:#10354A;} .st120{fill:#674C46;} .st121{fill:#F3DAB9;} .st122{fill:#1B82B5;} .st123{fill:#4EB0D7;} .st124{fill:#F6CC57;} .st125{fill:#11202F;} .st126{fill:#E5BC8D;} .st127{fill:#997256;} .st128{fill:#DD1E26;} .st129{fill:#EE9B27;} .st130{fill:#F16121;} .st131{fill:#4492CF;} .st132{fill:#DF2841;} .st133{fill:#3F77BC;} .st134{fill:#F5C22A;} .st135{fill:#141414;} .st136{fill:#C78A2A;} .st137{fill:#DA972D;} .st138{fill:#F4AE35;} .st139{fill:#1D9045;} .st140{fill:#CC2628;} .st141{fill:#679B62;} .st142{fill:#C13A37;} .st143{fill:#4F5056;} .st144{fill:#EFEFEF;} .st145{fill:#EB8028;} .st146{fill:#174AA0;} .st147{fill:#E92830;} .st148{fill:#F04F4D;}</style><path class="st39" d="M24.059,46.825c3.58-3.61,7.715-6.41,12.2-8.28c-1.11-2.285-1.57-4.885-1.35-7.685l-3.34-0.2 c-3.191-0.2-5.685-2.779-5.849-5.904C14.41,32.611,7,45.687,7,60.5c0,8.077,2.209,15.634,6.044,22.115V79.98 C13.044,70.17,13.044,57.97,24.059,46.825z"/><path class="st39" d="M47.914,18.53c1.6-0.05,3.515,0.295,5.7,1.015c3.61,1.2,6.495,3.75,8.13,7.2c1.625,3.44,1.765,7.3,0.4,10.85 c-0.035,0.095-0.08,0.185-0.12,0.275l0.77,0.26c4.835,1.725,9.32,4.55,13.185,8.35c0.06,0.06,0.12,0.115,0.17,0.175l0.45,0.435 l0.3,0.33l0.25,0.265c0.37,0.4,0.72,0.8,1.07,1.2c0.155,0.185,0.315,0.36,0.465,0.56c0.16,0.195,0.325,0.385,0.475,0.585l0.52,0.68 h0.005c4.655,6.18,7.275,13.585,7.275,20.915c0,6.367-1.151,12.129-3.342,17.064C90.087,81.096,94,71.258,94,60.5 C94,36.476,74.524,17,50.5,17c-0.865,0-1.722,0.032-2.575,0.082C47.789,17.929,47.863,18.366,47.914,18.53z"/><path class="st40" d="M75.854,53.44l-0.38-0.5c-0.145-0.185-0.285-0.36-0.435-0.535l-0.42-0.5c-0.265-0.305-0.53-0.605-0.8-0.89 c-0.115-0.135-0.24-0.27-0.365-0.4l-0.57-0.58c-0.085-0.095-0.185-0.18-0.285-0.28c-2.725-2.66-5.885-4.84-9.235-6.325 c-0.875-0.39-1.765-0.73-2.65-1.05c-0.435-0.14-0.885-0.275-1.335-0.4c-0.425,0.455-0.88,0.88-1.36,1.27l5.565,6.85 c1.7,2.085,1.38,5.165-0.7,6.865c-0.575,0.47-1.265,0.805-1.99,0.97c-0.36,0.085-0.725,0.12-1.1,0.12c-0.665,0-1.31-0.13-1.89-0.38 l-0.95,0.775c-0.835,0.675-1.88,1.05-2.95,1.05c-1.4,0-2.71-0.625-3.6-1.71l-1.58-1.94c-1.085-1.33-1.31-3.08-0.735-4.58l-0.25-0.3 c-1.1-1.365-1.31-3.165-0.7-4.69c-0.53-0.09-1.07-0.19-1.6-0.34c-2.13-0.6-4.01-1.56-5.58-2.8c-11.015,4.48-18.865,15.16-19.19,27.7 l17.635-18.7l-5.45,17.08c10.24-5.35,21.94-6.14,34.89-2.34c4.125,1.21,7.86,0.29,9.75-2.39v-0.01c1.94-2.76,1.44-6.695-1.35-10.525 C76.119,53.78,75.984,53.61,75.854,53.44z"/><path class="st41" d="M51.809,53.415l1.585,1.93c0.155,0.2,0.39,0.3,0.62,0.3c0.18,0,0.36-0.06,0.51-0.18l3.485-2.85l0.985,1.215 c0.21,0.245,0.5,0.38,0.8,0.38c0.085,0,0.155-0.01,0.235-0.03c0.145-0.035,0.29-0.11,0.42-0.21c0.44-0.35,0.505-1,0.14-1.45 l-9.875-12.15c-0.2-0.25-0.5-0.375-0.8-0.375c-0.23,0-0.46,0.08-0.65,0.24c-0.45,0.35-0.51,1.01-0.15,1.45l3.52,4.33l-1.7,1.4 c-0.34,0.28-0.39,0.78-0.115,1.115l0.37,0.45c0.15,0.18,0.37,0.28,0.59,0.28c0.17,0,0.335-0.055,0.485-0.175l1.73-1.415l0.005-0.005 l1.425,1.77l-3.5,2.86C51.579,52.575,51.534,53.075,51.809,53.415z"/><path class="st40" d="M45.064,40.78c0.07-1.325,0.67-2.625,1.78-3.525c0.87-0.71,1.965-1.1,3.085-1.1 c1.465,0,2.845,0.65,3.775,1.785l0.01,0.01l1.36,1.675c1.17-0.965,2.11-2.215,2.685-3.7c0.9-2.355,0.81-4.895-0.265-7.165 c-1.075-2.27-2.98-3.96-5.36-4.75c-2.09-0.69-3.39-0.8-4.11-0.775c-1.625,0.065-3.12-0.69-4-2.02c-0.1-0.155-0.195-0.31-0.28-0.475 c-2.17,3.4-3.69,6.56-4.1,9.9l-0.005,0.005C39.064,35.305,41.064,38.98,45.064,40.78z"/><path class="st11" d="M41.634,78.055c-1.75,0-3.175,1.43-3.175,3.18c0,1.76,1.43,3.18,3.18,3.18c1.755,0,3.18-1.42,3.18-3.18 l-0.01,0.005C44.809,79.49,43.384,78.055,41.634,78.055z"/><path class="st11" d="M61.354,78.055c-1.755,0-3.165,1.43-3.165,3.18c0,1.76,1.42,3.18,3.175,3.18s3.18-1.42,3.18-3.18l-0.01,0.005 C64.534,79.49,63.109,78.055,61.354,78.055z"/><path class="st11" d="M13.044,85.895l1.234-1.31c-0.429-0.644-0.839-1.302-1.234-1.97V85.895z"/><path class="st11" d="M83.617,88.689c-0.378,0.444-0.762,0.883-1.157,1.311h0.559C83.231,89.573,83.422,89.129,83.617,88.689z"/><path class="st107" d="M51.809,53.415l1.585,1.93c0.155,0.2,0.39,0.3,0.62,0.3c0.18,0,0.36-0.06,0.51-0.18l3.485-2.85l0.985,1.215 c0.21,0.245,0.5,0.38,0.8,0.38c0.085,0,0.155-0.01,0.235-0.03c0.145-0.035,0.29-0.11,0.42-0.21c0.44-0.35,0.505-1,0.14-1.45 l-9.875-12.15c-0.2-0.25-0.5-0.375-0.8-0.375c-0.23,0-0.46,0.08-0.65,0.24c-0.45,0.35-0.51,1.01-0.15,1.45l3.52,4.33l-1.7,1.4 c-0.34,0.28-0.39,0.78-0.115,1.115l0.37,0.45c0.15,0.18,0.37,0.28,0.59,0.28c0.17,0,0.335-0.055,0.485-0.175l1.73-1.415l0.005-0.005 l1.425,1.77l-3.5,2.86C51.579,52.575,51.534,53.075,51.809,53.415z"/><path class="st107" d="M75.854,53.44l-0.38-0.5c-0.145-0.185-0.285-0.36-0.435-0.535l-0.42-0.5c-0.265-0.305-0.53-0.605-0.8-0.89 c-0.115-0.135-0.24-0.27-0.365-0.4l-0.57-0.58c-0.085-0.095-0.185-0.18-0.285-0.28c-2.725-2.66-5.885-4.84-9.235-6.325 c-0.875-0.39-1.765-0.73-2.65-1.05c-0.435-0.14-0.885-0.275-1.335-0.4c-0.425,0.455-0.88,0.88-1.36,1.27l5.565,6.85 c1.7,2.085,1.38,5.165-0.7,6.865c-0.575,0.47-1.265,0.805-1.99,0.97c-0.36,0.085-0.725,0.12-1.1,0.12c-0.665,0-1.31-0.13-1.89-0.38 l-0.95,0.775c-0.835,0.675-1.88,1.05-2.95,1.05c-1.4,0-2.71-0.625-3.6-1.71l-1.58-1.94c-1.085-1.33-1.31-3.08-0.735-4.58l-0.25-0.3 c-1.1-1.365-1.31-3.165-0.7-4.69c-0.53-0.09-1.07-0.19-1.6-0.34c-2.13-0.6-4.01-1.56-5.58-2.8c-11.015,4.48-18.865,15.16-19.19,27.7 l17.635-18.7l-5.45,17.08c10.24-5.35,21.94-6.14,34.89-2.34c4.125,1.21,7.86,0.29,9.75-2.39v-0.01c1.94-2.76,1.44-6.695-1.35-10.525 C76.119,53.78,75.984,53.61,75.854,53.44z"/><path class="st107" d="M45.064,40.78c0.07-1.325,0.67-2.625,1.78-3.525c0.87-0.71,1.965-1.1,3.085-1.1 c1.465,0,2.845,0.65,3.775,1.785l0.01,0.01l1.36,1.675c1.17-0.965,2.11-2.215,2.685-3.7c0.9-2.355,0.81-4.895-0.265-7.165 c-1.075-2.27-2.98-3.96-5.36-4.75c-2.09-0.69-3.39-0.8-4.11-0.775c-1.625,0.065-3.12-0.69-4-2.02c-0.1-0.155-0.195-0.31-0.28-0.475 c-2.17,3.4-3.69,6.56-4.1,9.9l-0.005,0.005C39.064,35.305,41.064,38.98,45.064,40.78z"/><path class="st108" d="M36.994,18.52l-4.67-0.3h-0.085c-0.815,0-1.485,0.635-1.535,1.45l-0.3,4.67c-0.05,0.845,0.6,1.58,1.45,1.63 l3.99,0.25l-0.01-0.005c0.63-1.95,1.51-3.84,2.58-5.73l0.025-0.335c0.025-0.42-0.11-0.81-0.385-1.12 C37.784,18.72,37.404,18.54,36.994,18.52z M35.729,23.715l-2.785-0.165l0.175-2.785l2.78,0.17L35.729,23.715z"/><path class="st11" d="M79.684,50.71h-0.005l-0.52-0.68c-0.15-0.2-0.315-0.39-0.475-0.585c-0.15-0.2-0.31-0.375-0.465-0.56 c-0.35-0.4-0.7-0.8-1.07-1.2l-0.25-0.265l-0.3-0.33l-0.45-0.435c-0.05-0.06-0.11-0.115-0.17-0.175 c-3.865-3.8-8.35-6.625-13.185-8.35l-0.77-0.26c0.04-0.09,0.085-0.18,0.12-0.275c1.365-3.55,1.225-7.41-0.4-10.85 c-1.635-3.45-4.52-6-8.13-7.2c-2.185-0.72-4.1-1.065-5.7-1.015c-0.11-0.35-0.335-1.925,1.65-6.16L45.544,10l-0.96,1.33 c-1.1,1.52-2.16,2.985-3.15,4.43c-1.09-1.15-2.55-1.84-4.15-1.935l-4.65-0.29h-0.04c-0.11-0.01-0.235-0.01-0.35-0.01 c-3.3,0-6.03,2.57-6.235,5.85l-0.29,4.675v0.01c-0.2,3.43,2.425,6.385,5.85,6.6l3.34,0.2c-0.22,2.8,0.24,5.4,1.35,7.685 c-4.485,1.87-8.62,4.67-12.2,8.28C13.044,57.97,13.044,70.17,13.044,79.98v5.915l4.35-4.62c0.88,3.1,2.17,6.025,3.81,8.72h5.66 c-2.775-3.715-4.73-8.085-5.6-12.825l6.38-6.77l-3.285,10.3l5.8-4.22c10.25-7.45,22.48-9.17,36.365-5.1 c6.02,1.775,11.87,0.13,14.91-4.19l0.35-0.55c0.3,1.66,0.465,3.325,0.465,4.985c0,5.21-0.85,12.29-4.6,18.375h5.37 c2.59-5.21,3.94-11.44,3.94-18.375C86.959,64.295,84.339,56.89,79.684,50.71z M39.639,30.645l0.005-0.005 c0.41-3.34,1.93-6.5,4.1-9.9c0.085,0.165,0.18,0.32,0.28,0.475c0.88,1.33,2.375,2.085,4,2.02c0.72-0.025,2.02,0.085,4.11,0.775 c2.38,0.79,4.285,2.48,5.36,4.75c1.075,2.27,1.165,4.81,0.265,7.165c-0.575,1.485-1.515,2.735-2.685,3.7l-1.36-1.675l-0.01-0.01 c-0.93-1.135-2.31-1.785-3.775-1.785c-1.12,0-2.215,0.39-3.085,1.1c-1.11,0.9-1.71,2.2-1.78,3.525 C41.064,38.98,39.064,35.305,39.639,30.645z M53.999,47.665l-0.005,0.005l-1.73,1.415c-0.15,0.12-0.315,0.175-0.485,0.175 c-0.22,0-0.44-0.1-0.59-0.28l-0.37-0.45c-0.275-0.335-0.225-0.835,0.115-1.115l1.7-1.4l-3.52-4.33c-0.36-0.44-0.3-1.1,0.15-1.45 c0.19-0.16,0.42-0.24,0.65-0.24c0.3,0,0.6,0.125,0.8,0.375l9.875,12.15c0.365,0.45,0.3,1.1-0.14,1.45 c-0.13,0.1-0.275,0.175-0.42,0.21c-0.08,0.02-0.15,0.03-0.235,0.03c-0.3,0-0.59-0.135-0.8-0.38l-0.985-1.215l-3.485,2.85 c-0.15,0.12-0.33,0.18-0.51,0.18c-0.23,0-0.465-0.1-0.62-0.3l-1.585-1.93c-0.275-0.34-0.23-0.84,0.115-1.12l3.5-2.86L53.999,47.665z M30.704,19.67c0.05-0.815,0.72-1.45,1.535-1.45h0.085l4.67,0.3c0.41,0.02,0.79,0.2,1.06,0.51c0.275,0.31,0.41,0.7,0.385,1.12 l-0.025,0.335c-1.07,1.89-1.95,3.78-2.58,5.73l0.01,0.005l-3.99-0.25c-0.85-0.05-1.5-0.785-1.45-1.63L30.704,19.67z M77.594,64.48 v0.01c-1.89,2.68-5.625,3.6-9.75,2.39c-12.95-3.8-24.65-3.01-34.89,2.34l5.45-17.08l-17.635,18.7 c0.325-12.54,8.175-23.22,19.19-27.7c1.57,1.24,3.45,2.2,5.58,2.8c0.53,0.15,1.07,0.25,1.6,0.34c-0.61,1.525-0.4,3.325,0.7,4.69 l0.25,0.3c-0.575,1.5-0.35,3.25,0.735,4.58l1.58,1.94c0.89,1.085,2.2,1.71,3.6,1.71c1.07,0,2.115-0.375,2.95-1.05l0.95-0.775 c0.58,0.25,1.225,0.38,1.89,0.38c0.375,0,0.74-0.035,1.1-0.12c0.725-0.165,1.415-0.5,1.99-0.97c2.08-1.7,2.4-4.78,0.7-6.865 l-5.565-6.85c0.48-0.39,0.935-0.815,1.36-1.27c0.45,0.125,0.9,0.26,1.335,0.4c0.885,0.32,1.775,0.66,2.65,1.05 c3.35,1.485,6.51,3.665,9.235,6.325c0.1,0.1,0.2,0.185,0.285,0.28l0.57,0.58c0.125,0.13,0.25,0.265,0.365,0.4 c0.27,0.285,0.535,0.585,0.8,0.89l0.42,0.5c0.15,0.175,0.29,0.35,0.435,0.535l0.38,0.5c0.13,0.17,0.265,0.34,0.39,0.515 C79.034,57.785,79.534,61.72,77.594,64.48z"/><rect x="33.029" y="20.847" transform="matrix(0.0591 -0.9983 0.9983 0.0591 10.1849 55.2885)" class="st11" width="2.788" height="2.788"/><metadata xmlns:d="https://loading.io/stock/">
<d:name>keybase</d:name>
<d:tags>keybase,brand</d:tags>
<d:license>cc0</d:license>
<d:slug>9zsud4</d:slug>
</metadata></svg>